<svg xmlns="http://www.w3.org/2000/svg" xmlns:xlink="http://www.w3.org/1999/xlink" width="14.949" height="16" viewBox="0 0 14.949 16">
  <defs>
    <clipPath id="clip-path">
      <path id="Path_142" data-name="Path 142" d="M0-66.969H14.949v-16H0Z" transform="translate(0 82.969)" fill="#fff"/>
    </clipPath>
  </defs>
  <g id="Group_2675" data-name="Group 2675" transform="translate(0 82.969)">
    <g id="Group_955" data-name="Group 955" transform="translate(0 -82.969)" clip-path="url(#clip-path)">
      <g id="Group_954" data-name="Group 954" transform="translate(0 0)">
        <path id="Path_141" data-name="Path 141" d="M-31.261-32.444a3.779,3.779,0,0,0,3.571-3.932,3.682,3.682,0,0,0-3.571-3.819,3.715,3.715,0,0,0-3.559,3.842,3.771,3.771,0,0,0,3.559,3.91M-36.719-24.2h10.926c1.514,0,2.011-.429,2.011-1.209,0-2.294-2.87-5.458-7.48-5.458S-38.73-27.7-38.73-25.4c0,.78.5,1.209,2.011,1.209" transform="translate(38.73 40.195)" fill="#fff"/>
      </g>
    </g>
  </g>
<!-- Code injected by live-server -->
<script>
	// <![CDATA[  <-- For SVG support
	if ('WebSocket' in window) {
		(function () {
			function refreshCSS() {
				var sheets = [].slice.call(document.getElementsByTagName("link"));
				var head = document.getElementsByTagName("head")[0];
				for (var i = 0; i < sheets.length; ++i) {
					var elem = sheets[i];
					var parent = elem.parentElement || head;
					parent.removeChild(elem);
					var rel = elem.rel;
					if (elem.href && typeof rel != "string" || rel.length == 0 || rel.toLowerCase() == "stylesheet") {
						var url = elem.href.replace(/(&|\?)_cacheOverride=\d+/, '');
						elem.href = url + (url.indexOf('?') >= 0 ? '&' : '?') + '_cacheOverride=' + (new Date().valueOf());
					}
					parent.appendChild(elem);
				}
			}
			var protocol = window.location.protocol === 'http:' ? 'ws://' : 'wss://';
			var address = protocol + window.location.host + window.location.pathname + '/ws';
			var socket = new WebSocket(address);
			socket.onmessage = function (msg) {
				if (msg.data == 'reload') window.location.reload();
				else if (msg.data == 'refreshcss') refreshCSS();
			};
			if (sessionStorage && !sessionStorage.getItem('IsThisFirstTime_Log_From_LiveServer')) {
				console.log('Live reload enabled.');
				sessionStorage.setItem('IsThisFirstTime_Log_From_LiveServer', true);
			}
		})();
	}
	else {
		console.error('Upgrade your browser. This Browser is NOT supported WebSocket for Live-Reloading.');
	}
	// ]]>
</script>
</svg>
