<svg xmlns="http://www.w3.org/2000/svg" width="41" height="34" viewBox="0 0 41 34">
  <g id="Group_2673" data-name="Group 2673" transform="translate(-173.741 -917.75)">
    <g id="Rectangle_62" data-name="Rectangle 62" transform="translate(173.741 917.75)" fill="#fff" stroke="#707070" stroke-width="0.2">
      <rect width="41" height="34" rx="3" stroke="none"/>
      <rect x="0.1" y="0.1" width="40.8" height="33.8" rx="2.9" fill="none"/>
    </g>
    <path id="noun-telegram-4137491" d="M128.144,50.372,123.9,67.851a1.315,1.315,0,0,1-1.879.856l-5.364-2.769-2.536,4.149a1.315,1.315,0,0,1-2.436-.682V64.782a1.322,1.322,0,0,1,.407-.948l10.453-9.978a.174.174,0,0,0-.274-.141L109.8,62.4l-4.191-2.162a1.313,1.313,0,0,1,.075-2.37l20.664-9.005a1.311,1.311,0,0,1,1.8,1.513Z" transform="translate(77.035 875.018)"/>
  </g>
<!-- Code injected by live-server -->
<script>
	// <![CDATA[  <-- For SVG support
	if ('WebSocket' in window) {
		(function () {
			function refreshCSS() {
				var sheets = [].slice.call(document.getElementsByTagName("link"));
				var head = document.getElementsByTagName("head")[0];
				for (var i = 0; i < sheets.length; ++i) {
					var elem = sheets[i];
					var parent = elem.parentElement || head;
					parent.removeChild(elem);
					var rel = elem.rel;
					if (elem.href && typeof rel != "string" || rel.length == 0 || rel.toLowerCase() == "stylesheet") {
						var url = elem.href.replace(/(&|\?)_cacheOverride=\d+/, '');
						elem.href = url + (url.indexOf('?') >= 0 ? '&' : '?') + '_cacheOverride=' + (new Date().valueOf());
					}
					parent.appendChild(elem);
				}
			}
			var protocol = window.location.protocol === 'http:' ? 'ws://' : 'wss://';
			var address = protocol + window.location.host + window.location.pathname + '/ws';
			var socket = new WebSocket(address);
			socket.onmessage = function (msg) {
				if (msg.data == 'reload') window.location.reload();
				else if (msg.data == 'refreshcss') refreshCSS();
			};
			if (sessionStorage && !sessionStorage.getItem('IsThisFirstTime_Log_From_LiveServer')) {
				console.log('Live reload enabled.');
				sessionStorage.setItem('IsThisFirstTime_Log_From_LiveServer', true);
			}
		})();
	}
	else {
		console.error('Upgrade your browser. This Browser is NOT supported WebSocket for Live-Reloading.');
	}
	// ]]>
</script>
</svg>
