<svg xmlns="http://www.w3.org/2000/svg" width="41" height="34" viewBox="0 0 41 34">
  <g id="Group_62" data-name="Group 62" transform="translate(-173.741 -917.75)">
    <g id="Rectangle_62" data-name="Rectangle 62" transform="translate(173.741 917.75)" fill="#fff" stroke="#707070" stroke-width="0.2">
      <rect width="41" height="34" rx="3" stroke="none"/>
      <rect x="0.1" y="0.1" width="40.8" height="33.8" rx="2.9" fill="none"/>
    </g>
    <path id="icons8-linkedin" d="M18.957,4H6.021A2.022,2.022,0,0,0,4,6.021V18.957a2.022,2.022,0,0,0,2.021,2.021H18.957a2.022,2.022,0,0,0,2.021-2.021V6.021A2.022,2.022,0,0,0,18.957,4Zm-9.7,6.468v7.681H6.83V10.468ZM6.83,8.232a1.077,1.077,0,0,1,1.213-1,1.094,1.094,0,0,1,1.213,1A1.076,1.076,0,0,1,8.042,9.255,1.094,1.094,0,0,1,6.83,8.232Zm11.319,9.916H15.723V14.106a1.453,1.453,0,0,0-1.415-1.633h-.032c-.978,0-1.383.833-1.383,1.633v4.042H10.468V10.468h2.425V11.5a3.028,3.028,0,0,1,2.349-1.035c1.6,0,2.907,1.1,2.907,3.339Z" transform="translate(181.741 922.75)"/>
  </g>
<!-- Code injected by live-server -->
<script>
	// <![CDATA[  <-- For SVG support
	if ('WebSocket' in window) {
		(function () {
			function refreshCSS() {
				var sheets = [].slice.call(document.getElementsByTagName("link"));
				var head = document.getElementsByTagName("head")[0];
				for (var i = 0; i < sheets.length; ++i) {
					var elem = sheets[i];
					var parent = elem.parentElement || head;
					parent.removeChild(elem);
					var rel = elem.rel;
					if (elem.href && typeof rel != "string" || rel.length == 0 || rel.toLowerCase() == "stylesheet") {
						var url = elem.href.replace(/(&|\?)_cacheOverride=\d+/, '');
						elem.href = url + (url.indexOf('?') >= 0 ? '&' : '?') + '_cacheOverride=' + (new Date().valueOf());
					}
					parent.appendChild(elem);
				}
			}
			var protocol = window.location.protocol === 'http:' ? 'ws://' : 'wss://';
			var address = protocol + window.location.host + window.location.pathname + '/ws';
			var socket = new WebSocket(address);
			socket.onmessage = function (msg) {
				if (msg.data == 'reload') window.location.reload();
				else if (msg.data == 'refreshcss') refreshCSS();
			};
			if (sessionStorage && !sessionStorage.getItem('IsThisFirstTime_Log_From_LiveServer')) {
				console.log('Live reload enabled.');
				sessionStorage.setItem('IsThisFirstTime_Log_From_LiveServer', true);
			}
		})();
	}
	else {
		console.error('Upgrade your browser. This Browser is NOT supported WebSocket for Live-Reloading.');
	}
	// ]]>
</script>
</svg>
