<svg xmlns="http://www.w3.org/2000/svg" width="41" height="34" viewBox="0 0 41 34">
  <g id="Group_61" data-name="Group 61" transform="translate(-27 -918.056)">
    <g id="Rectangle_57" data-name="Rectangle 57" transform="translate(27 918.056)" fill="#fff" stroke="#707070" stroke-width="0.2">
      <rect width="41" height="34" rx="3" stroke="none"/>
      <rect x="0.1" y="0.1" width="40.8" height="33.8" rx="2.9" fill="none"/>
    </g>
    <g id="Page-1" transform="translate(40 927.056)">
      <g id="Social-Icons---Rounded-Black" transform="translate(0 0)">
        <g id="Facebook">
          <path id="Subtraction_1" data-name="Subtraction 1" d="M8.167,15.074H1.675A1.677,1.677,0,0,1,0,13.4V1.675A1.677,1.677,0,0,1,1.675,0H13.4a1.677,1.677,0,0,1,1.675,1.675V13.4A1.677,1.677,0,0,1,13.4,15.073H10.42V9.4H12.3l.28-2.181H10.42V5.822c0-.637.184-1.061,1.082-1.061l1.157,0V2.809a15.292,15.292,0,0,0-1.684-.088A2.642,2.642,0,0,0,8.167,5.608V7.217H6.281V9.4H8.167v5.676Z"/>
        </g>
      </g>
    </g>
  </g>
<!-- Code injected by live-server -->
<script>
	// <![CDATA[  <-- For SVG support
	if ('WebSocket' in window) {
		(function () {
			function refreshCSS() {
				var sheets = [].slice.call(document.getElementsByTagName("link"));
				var head = document.getElementsByTagName("head")[0];
				for (var i = 0; i < sheets.length; ++i) {
					var elem = sheets[i];
					var parent = elem.parentElement || head;
					parent.removeChild(elem);
					var rel = elem.rel;
					if (elem.href && typeof rel != "string" || rel.length == 0 || rel.toLowerCase() == "stylesheet") {
						var url = elem.href.replace(/(&|\?)_cacheOverride=\d+/, '');
						elem.href = url + (url.indexOf('?') >= 0 ? '&' : '?') + '_cacheOverride=' + (new Date().valueOf());
					}
					parent.appendChild(elem);
				}
			}
			var protocol = window.location.protocol === 'http:' ? 'ws://' : 'wss://';
			var address = protocol + window.location.host + window.location.pathname + '/ws';
			var socket = new WebSocket(address);
			socket.onmessage = function (msg) {
				if (msg.data == 'reload') window.location.reload();
				else if (msg.data == 'refreshcss') refreshCSS();
			};
			if (sessionStorage && !sessionStorage.getItem('IsThisFirstTime_Log_From_LiveServer')) {
				console.log('Live reload enabled.');
				sessionStorage.setItem('IsThisFirstTime_Log_From_LiveServer', true);
			}
		})();
	}
	else {
		console.error('Upgrade your browser. This Browser is NOT supported WebSocket for Live-Reloading.');
	}
	// ]]>
</script>
</svg>
