<svg xmlns="http://www.w3.org/2000/svg" width="41" height="34" viewBox="0 0 41 34">
  <g id="Group_65" data-name="Group 65" transform="translate(-173.741 -917.75)">
    <g id="Rectangle_62" data-name="Rectangle 62" transform="translate(173.741 917.75)" fill="#fff" stroke="#707070" stroke-width="0.2">
      <rect width="41" height="34" rx="3" stroke="none"/>
      <rect x="0.1" y="0.1" width="40.8" height="33.8" rx="2.9" fill="none"/>
    </g>
    <path id="Icon_awesome-spotify" data-name="Icon awesome-spotify" d="M10.5.563A10.5,10.5,0,1,0,21,11.064,10.505,10.505,0,0,0,10.5.563Zm4.264,15.452a.808.808,0,0,1-.453-.152C11.671,14.27,8.6,14.2,5.56,14.825a2.734,2.734,0,0,1-.5.11.659.659,0,0,1-.669-.669.671.671,0,0,1,.576-.711c3.468-.766,7.012-.7,10.036,1.109a.716.716,0,0,1,.411.7.64.64,0,0,1-.644.652Zm1.139-2.778a1.046,1.046,0,0,1-.521-.178,13.723,13.723,0,0,0-10.1-1.245,1.744,1.744,0,0,1-.5.11.822.822,0,0,1-.822-.822.833.833,0,0,1,.656-.877A14.243,14.243,0,0,1,8.753,9.65a14.823,14.823,0,0,1,7.5,1.927.883.883,0,0,1,.479.834.821.821,0,0,1-.822.826Zm1.313-3.227a.974.974,0,0,1-.546-.165c-3.015-1.8-8.406-2.232-11.895-1.258a2.011,2.011,0,0,1-.546.11.977.977,0,0,1-.987-1,1,1,0,0,1,.737-1.012,17.748,17.748,0,0,1,4.976-.644,17.885,17.885,0,0,1,8.7,2.024.994.994,0,0,1,.546.957.981.981,0,0,1-.982.987Z" transform="translate(183.739 923.685)"/>
  </g>
<!-- Code injected by live-server -->
<script>
	// <![CDATA[  <-- For SVG support
	if ('WebSocket' in window) {
		(function () {
			function refreshCSS() {
				var sheets = [].slice.call(document.getElementsByTagName("link"));
				var head = document.getElementsByTagName("head")[0];
				for (var i = 0; i < sheets.length; ++i) {
					var elem = sheets[i];
					var parent = elem.parentElement || head;
					parent.removeChild(elem);
					var rel = elem.rel;
					if (elem.href && typeof rel != "string" || rel.length == 0 || rel.toLowerCase() == "stylesheet") {
						var url = elem.href.replace(/(&|\?)_cacheOverride=\d+/, '');
						elem.href = url + (url.indexOf('?') >= 0 ? '&' : '?') + '_cacheOverride=' + (new Date().valueOf());
					}
					parent.appendChild(elem);
				}
			}
			var protocol = window.location.protocol === 'http:' ? 'ws://' : 'wss://';
			var address = protocol + window.location.host + window.location.pathname + '/ws';
			var socket = new WebSocket(address);
			socket.onmessage = function (msg) {
				if (msg.data == 'reload') window.location.reload();
				else if (msg.data == 'refreshcss') refreshCSS();
			};
			if (sessionStorage && !sessionStorage.getItem('IsThisFirstTime_Log_From_LiveServer')) {
				console.log('Live reload enabled.');
				sessionStorage.setItem('IsThisFirstTime_Log_From_LiveServer', true);
			}
		})();
	}
	else {
		console.error('Upgrade your browser. This Browser is NOT supported WebSocket for Live-Reloading.');
	}
	// ]]>
</script>
</svg>
