<svg id="Premium_small_batch" xmlns="http://www.w3.org/2000/svg" xmlns:xlink="http://www.w3.org/1999/xlink" width="66.938" height="20" viewBox="0 0 66.938 20">
  <defs>
    <clipPath id="clip-path">
      <rect id="Rectangle_410" data-name="Rectangle 410" width="20" height="20" fill="#c00"/>
    </clipPath>
  </defs>
  <g id="Group_2573" data-name="Group 2573" transform="translate(0 0)">
    <g id="Group_2571" data-name="Group 2571" transform="translate(0 0)">
      <g id="Group_1644" data-name="Group 1644">
        <g id="Group_1643" data-name="Group 1643" clip-path="url(#clip-path)">
          <path id="Path_315" data-name="Path 315" d="M19.474,9.736A9.737,9.737,0,1,1,9.737,0a9.737,9.737,0,0,1,9.737,9.737" transform="translate(0 0.001)" fill="#c00"/>
        </g>
      </g>
      <g id="Group_2572" data-name="Group 2572" transform="translate(2.78 4.736)">
        <g id="Group_1137" data-name="Group 1137" transform="translate(12.077 6.807)">
          <path id="Path_129" data-name="Path 129" d="M-10.983-21.467a1.491,1.491,0,0,1-1.489-1.489,1.491,1.491,0,0,1,1.489-1.489,1.491,1.491,0,0,1,1.489,1.489A1.491,1.491,0,0,1-10.983-21.467Zm0-2.752a1.264,1.264,0,0,0-1.263,1.263,1.264,1.264,0,0,0,1.263,1.263A1.264,1.264,0,0,0-9.72-22.956,1.264,1.264,0,0,0-10.983-24.219Z" transform="translate(12.472 24.445)" fill="#fff"/>
          <path id="Path_130" data-name="Path 130" d="M-5.984-11.969a.777.777,0,0,0,.777-.777.777.777,0,0,0-.777-.777.777.777,0,0,0-.777.777.777.777,0,0,0,.777.777" transform="translate(7.473 14.235)" fill="#fff"/>
        </g>
        <g id="Group_1140" data-name="Group 1140" transform="translate(0 0)">
          <g id="Group_1135" data-name="Group 1135" transform="translate(7.958 0.029)">
            <path id="Path_134" data-name="Path 134" d="M-46.859-119.553l-.043-.086-.173-.014c-.5-.043-.6-.086-.6-.2v-9.354l-2.95.72-.014.058.317.086c.5.13.59.245.59,1.108v7.354c0,.173-.072.2-.518.23l-.187.014-.058.086Z" transform="translate(50.644 129.209)" fill="#fff"/>
          </g>
          <g id="Group_1136" data-name="Group 1136">
            <path id="Path_135" data-name="Path 135" d="M-54.7-120.622c-.475,0-1.051-.561-1.468-1.3v-3.6A1.757,1.757,0,0,1-55.044-126c.979,0,1.569,1.079,1.569,2.576,0,1.54-.432,2.806-1.223,2.806m-3.411.259,1.166-.561h.014a5.679,5.679,0,0,0,2.087.446,3.459,3.459,0,0,0,3.583-3.468,2.832,2.832,0,0,0-2.59-3.094,3.007,3.007,0,0,0-2.259,1.338l-.058-.043v-4.62l-2.936.72-.014.058.331.086c.5.13.59.245.59,1.108v8.03Z" transform="translate(59.117 130.365)" fill="#fff"/>
          </g>
        </g>
      </g>
    </g>
  </g>
  <text id="Premium" transform="translate(22.938 5)" fill="#c00" font-size="9" font-family="Roboto-Bold, Roboto" font-weight="700"><tspan x="0" y="9">PREMIUM</tspan></text>
</svg>
