<svg xmlns="http://www.w3.org/2000/svg" xmlns:xlink="http://www.w3.org/1999/xlink" width="62.828" height="20" viewBox="0 0 62.828 20">
  <defs>
    <clipPath id="clip-path">
      <rect id="Rectangle_410" data-name="Rectangle 410" width="20" height="20" fill="#c00"/>
    </clipPath>
  </defs>
  <g id="Group_2904" data-name="Group 2904" transform="translate(-154 -38)">
    <g id="Group_2573" data-name="Group 2573" transform="translate(154 38)">
      <g id="Group_2571" data-name="Group 2571" transform="translate(0 0)">
        <g id="Group_1644" data-name="Group 1644">
          <g id="Group_1643" data-name="Group 1643" clip-path="url(#clip-path)">
            <path id="Path_315" data-name="Path 315" d="M19.474,9.736A9.737,9.737,0,1,1,9.737,0a9.737,9.737,0,0,1,9.737,9.737" transform="translate(0 0.001)" fill="#c00"/>
          </g>
        </g>
        <g id="Group_2572" data-name="Group 2572" transform="translate(2.78 4.736)">
          <g id="Group_1137" data-name="Group 1137" transform="translate(12.077 6.807)">
            <path id="Path_129" data-name="Path 129" d="M-10.983-21.467a1.491,1.491,0,0,1-1.489-1.489,1.491,1.491,0,0,1,1.489-1.489,1.491,1.491,0,0,1,1.489,1.489A1.491,1.491,0,0,1-10.983-21.467Zm0-2.752a1.264,1.264,0,0,0-1.263,1.263,1.264,1.264,0,0,0,1.263,1.263A1.264,1.264,0,0,0-9.72-22.956,1.264,1.264,0,0,0-10.983-24.219Z" transform="translate(12.472 24.445)" fill="#fff"/>
            <path id="Path_130" data-name="Path 130" d="M-5.984-11.969a.777.777,0,0,0,.777-.777.777.777,0,0,0-.777-.777.777.777,0,0,0-.777.777.777.777,0,0,0,.777.777" transform="translate(7.473 14.235)" fill="#fff"/>
          </g>
          <g id="Group_1140" data-name="Group 1140" transform="translate(0 0)">
            <g id="Group_1135" data-name="Group 1135" transform="translate(7.958 0.029)">
              <path id="Path_134" data-name="Path 134" d="M-46.859-119.553l-.043-.086-.173-.014c-.5-.043-.6-.086-.6-.2v-9.354l-2.95.72-.014.058.317.086c.5.13.59.245.59,1.108v7.354c0,.173-.072.2-.518.23l-.187.014-.058.086Z" transform="translate(50.644 129.209)" fill="#fff"/>
            </g>
            <g id="Group_1136" data-name="Group 1136">
              <path id="Path_135" data-name="Path 135" d="M-54.7-120.622c-.475,0-1.051-.561-1.468-1.3v-3.6A1.757,1.757,0,0,1-55.044-126c.979,0,1.569,1.079,1.569,2.576,0,1.54-.432,2.806-1.223,2.806m-3.411.259,1.166-.561h.014a5.679,5.679,0,0,0,2.087.446,3.459,3.459,0,0,0,3.583-3.468,2.832,2.832,0,0,0-2.59-3.094,3.007,3.007,0,0,0-2.259,1.338l-.058-.043v-4.62l-2.936.72-.014.058.331.086c.5.13.59.245.59,1.108v8.03Z" transform="translate(59.117 130.365)" fill="#fff"/>
            </g>
          </g>
        </g>
      </g>
    </g>
    <path id="Path_1303" data-name="Path 1303" d="M2.007,8.978v2.529H1.155V5.047H3.538A2.394,2.394,0,0,1,5.2,5.588a1.835,1.835,0,0,1,.6,1.433A1.811,1.811,0,0,1,5.213,8.47a2.5,2.5,0,0,1-1.684.508Zm0-.7H3.538a1.531,1.531,0,0,0,1.047-.322,1.178,1.178,0,0,0,.364-.931A1.217,1.217,0,0,0,4.585,6.1a1.434,1.434,0,0,0-1-.36H2.007Zm7.251.612H7.74v2.614H6.884V5.047H9.023a2.532,2.532,0,0,1,1.68.5A1.788,1.788,0,0,1,11.29,6.99a1.739,1.739,0,0,1-.326,1.052,1.947,1.947,0,0,1-.907.67l1.518,2.742v.053H10.66ZM7.74,8.2H9.049a1.476,1.476,0,0,0,1.009-.329,1.112,1.112,0,0,0,.375-.88,1.171,1.171,0,0,0-.357-.92,1.513,1.513,0,0,0-1.032-.325H7.74Zm8.4.324h-2.8v2.29h3.253v.7h-4.1V5.047h4.06v.7H13.336V7.825h2.8Zm2.614-3.474,2.112,5.272,2.112-5.272h1.1v6.461h-.852V8.992l.08-2.716-2.121,5.232h-.652L18.417,6.289l.084,2.7v2.516h-.852V5.047ZM26.5,11.508h-.852V5.047H26.5ZM32.6,5.047V9.44a2.061,2.061,0,0,1-.575,1.5,2.316,2.316,0,0,1-1.546.652l-.226.009a2.418,2.418,0,0,1-1.691-.572,2.047,2.047,0,0,1-.639-1.575v-4.4h.843V9.422A1.348,1.348,0,0,0,30.255,10.9a1.494,1.494,0,0,0,1.107-.386,1.475,1.475,0,0,0,.384-1.087V5.047Zm2.445,0,2.112,5.272,2.112-5.272h1.1v6.461h-.852V8.992l.08-2.716-2.121,5.232h-.652L34.715,6.289l.084,2.7v2.516h-.852V5.047Z" transform="translate(176.451 40.773)" fill="#c00"/>
  </g>
</svg>
