<svg xmlns="http://www.w3.org/2000/svg" width="16.978" height="16.978" viewBox="0 0 16.978 16.978">
  <g id="Group_1213" data-name="Group 1213" transform="translate(-927.5 -449)">
    <path id="icons8-instagram" d="M8.016,3A5.021,5.021,0,0,0,3,8.016v6.946a5.021,5.021,0,0,0,5.016,5.016h6.946a5.021,5.021,0,0,0,5.016-5.016V8.016A5.021,5.021,0,0,0,14.962,3Zm8.1,3.087a.772.772,0,1,1-.772.772A.774.774,0,0,1,16.12,6.087Zm-4.63,1.158a4.245,4.245,0,1,1-4.245,4.245A4.247,4.247,0,0,1,11.489,7.245Zm0,.772a3.473,3.473,0,1,0,3.473,3.473A3.478,3.478,0,0,0,11.489,8.016Z" transform="translate(924.5 446)" fill="#222"/>
  </g>
</svg>
