<svg xmlns="http://www.w3.org/2000/svg" width="19.191" height="19.191" viewBox="0 0 19.191 19.191">
  <g id="Group_1216" data-name="Group 1216" transform="translate(-1071.498 -447)">
    <path id="Icon_awesome-spotify" data-name="Icon awesome-spotify" d="M9.6.563a9.6,9.6,0,1,0,9.6,9.6A9.6,9.6,0,0,0,9.6.563Zm3.9,14.119a.738.738,0,0,1-.414-.139,10.92,10.92,0,0,0-8-.948,2.5,2.5,0,0,1-.46.1.6.6,0,0,1-.611-.611.613.613,0,0,1,.526-.65c3.169-.7,6.407-.638,9.17,1.014a.654.654,0,0,1,.375.638.585.585,0,0,1-.588.6Zm1.041-2.538a.955.955,0,0,1-.476-.163,12.539,12.539,0,0,0-9.232-1.138,1.593,1.593,0,0,1-.46.1.751.751,0,0,1-.751-.751.761.761,0,0,1,.6-.8A13.014,13.014,0,0,1,8,8.866a13.544,13.544,0,0,1,6.849,1.76.807.807,0,0,1,.437.762.75.75,0,0,1-.751.754Zm1.2-2.948a.89.89,0,0,1-.5-.151C12.478,7.4,7.553,7,4.364,7.895a1.838,1.838,0,0,1-.5.1.893.893,0,0,1-.9-.913.914.914,0,0,1,.673-.925,16.216,16.216,0,0,1,4.546-.588,16.341,16.341,0,0,1,7.947,1.849.908.908,0,0,1,.5.874.9.9,0,0,1-.9.9Z" transform="translate(1071.498 446.438)" fill="#222"/>
  </g>
</svg>
