<svg xmlns="http://www.w3.org/2000/svg" width="19.238" height="15.388" viewBox="0 0 19.238 15.388">
  <g id="Group_1212" data-name="Group 1212" transform="translate(-876.5 -450)">
    <g id="Page-1" transform="translate(876.5 450)">
      <g id="Dribbble-Light-Preview" transform="translate(0 0)">
        <g id="icons">
          <path id="twitter-_154_" data-name="twitter-[#154]" d="M10.05,7376.391a11.064,11.064,0,0,0,11.23-11.052c0-.174,0-.338-.012-.512a7.9,7.9,0,0,0,1.969-2.01,7.959,7.959,0,0,1-2.266.615,3.924,3.924,0,0,0,1.735-2.154,7.8,7.8,0,0,1-2.507.943,4,4,0,0,0-5.585-.163,3.849,3.849,0,0,0-1.142,3.712,11.3,11.3,0,0,1-8.135-4.059,3.852,3.852,0,0,0,1.223,5.185,4.008,4.008,0,0,1-1.792-.48v.048a3.913,3.913,0,0,0,3.167,3.809,3.977,3.977,0,0,1-1.781.058,3.936,3.936,0,0,0,3.687,2.7,7.921,7.921,0,0,1-4.9,1.665c-.314,0-.627-.021-.94-.05a11.37,11.37,0,0,0,6.05,1.742" transform="translate(-4 -7361.002)" fill="#222" fill-rule="evenodd"/>
        </g>
      </g>
    </g>
  </g>
</svg>
