<svg xmlns="http://www.w3.org/2000/svg" width="21.304" height="14.979" viewBox="0 0 21.304 14.979">
  <g id="Group_1215" data-name="Group 1215" transform="translate(-1023.337 -449.997)">
    <path id="Icon_awesome-youtube" data-name="Icon awesome-youtube" d="M20.858,2.344A2.684,2.684,0,0,0,19.621.719a2.637,2.637,0,0,0-.647-.27,12.563,12.563,0,0,0-2-.259C16.115.126,15.127.084,14.19.056S12.369.014,11.719.007,10.652,0,10.652,0s-.416,0-1.067.007S8.05.028,7.113.056,5.188.126,4.33.189a12.563,12.563,0,0,0-2,.259,2.638,2.638,0,0,0-.647.271A2.683,2.683,0,0,0,.445,2.344,10.826,10.826,0,0,0,.188,3.856c-.063.562-.1,1.155-.132,1.7S.014,6.58.007,6.933,0,7.5,0,7.5s0,.218.007.571.021.842.049,1.382.07,1.133.132,1.7a10.826,10.826,0,0,0,.257,1.512,2.592,2.592,0,0,0,.69,1.186,2.661,2.661,0,0,0,.547.413,2.739,2.739,0,0,0,.647.266,12.563,12.563,0,0,0,2,.259c.858.063,1.847.105,2.783.133s1.821.042,2.472.049,1.067.007,1.067.007.416,0,1.067-.007,1.535-.021,2.472-.049,1.925-.07,2.783-.133a12.563,12.563,0,0,0,2-.259,2.74,2.74,0,0,0,.647-.266,2.661,2.661,0,0,0,.547-.413,2.592,2.592,0,0,0,.69-1.186,10.826,10.826,0,0,0,.257-1.512c.063-.562.1-1.155.132-1.7s.042-1.029.049-1.382S21.3,7.5,21.3,7.5s0-.218-.007-.571-.021-.842-.049-1.382-.07-1.133-.132-1.7a10.826,10.826,0,0,0-.257-1.512ZM8.473,10.672V4.337L14.041,7.5,8.473,10.672Z" transform="translate(1023.337 449.997)" fill="#222"/>
  </g>
</svg>
