<svg xmlns="http://www.w3.org/2000/svg" width="18.93" height="18.93" viewBox="0 0 18.93 18.93">
  <g id="Group_1282" data-name="Group 1282" transform="translate(-1628.5 -197.57)">
    <path id="Path_129" data-name="Path 129" d="M-3.007-6.015a8.965,8.965,0,0,0,8.965-8.965,8.965,8.965,0,0,0-8.965-8.966,8.965,8.965,0,0,0-8.965,8.966A8.965,8.965,0,0,0-3.007-6.015Z" transform="translate(1640.972 222.015)" fill="none" stroke="#2b2e34" stroke-width="1"/>
    <path id="Path_130" data-name="Path 130" d="M-1.7-3.4A5.063,5.063,0,0,0,3.365-8.459,5.063,5.063,0,0,0-1.7-13.523,5.063,5.063,0,0,0-6.761-8.459,5.063,5.063,0,0,0-1.7-3.4" transform="translate(1639.662 215.494)" fill="#c00"/>
  </g>
</svg>
