<svg xmlns="http://www.w3.org/2000/svg" width="19.313" height="13.023" viewBox="0 0 19.313 13.023">
  <path id="Path_8178" data-name="Path 8178" d="M121.332,117.58a.45.45,0,0,1,.231.1l6.735,5.613a.449.449,0,0,1,0,.695l-6.735,5.613a.449.449,0,0,1-.737-.344v-2.463c-1.19-.012-6.841.121-10.931,3.7a.449.449,0,0,1-.723-.477c1.876-5.779,7.6-8.32,11.654-9.4v-2.582a.449.449,0,0,1,.505-.449Zm.393,1.4v1.964h0a.449.449,0,0,1-.337.435c-3.555.9-8.479,2.992-10.714,7.43a19.362,19.362,0,0,1,10.622-2.926h0a.449.449,0,0,1,.428.449v1.95l5.585-4.644-5.585-4.659Z" transform="translate(-109.15 -117.576)"/>
</svg>
