<svg xmlns="http://www.w3.org/2000/svg" width="16.301" height="16.301" viewBox="0 0 16.301 16.301">
  <path id="noun-comment-3266591" d="M77.986-.168a8.007,8.007,0,0,0-5.742,2.4,8.007,8.007,0,0,0-2.4,5.742,8.235,8.235,0,0,0,1.385,4.562L69.881,15.39a.519.519,0,0,0,.692.692l2.852-1.344a8.231,8.231,0,0,0,4.561,1.385,8.136,8.136,0,0,0,8.146-8.145,8.007,8.007,0,0,0-2.4-5.742,8.007,8.007,0,0,0-5.742-2.4Zm0,1.018a7.33,7.33,0,0,1,5.05,2.077A7.125,7.125,0,0,1,73.791,13.72a.608.608,0,0,0-.529-.04l-1.833.855.855-1.833a.5.5,0,0,0-.041-.529,7.1,7.1,0,0,1-1.385-4.195,7.33,7.33,0,0,1,2.077-5.05A7.33,7.33,0,0,1,77.986.85Zm-3.5,4.214a.509.509,0,1,0,0,1.018H77.9a.509.509,0,1,0,0-1.018Zm0,2.409h0a.509.509,0,0,0,0,1.018h7a.509.509,0,0,0,0-1.018Zm0,2.408a.51.51,0,1,0,0,1.019h7a.51.51,0,1,0,0-1.019Z" transform="translate(-69.83 0.168)"/>
</svg>
