<svg xmlns="http://www.w3.org/2000/svg" width="48" height="44.283" viewBox="0 0 48 44.283">
  <g id="Group_3079" data-name="Group 3079" transform="translate(-552.459 -260.651)">
    <g id="Group_3078" data-name="Group 3078" transform="translate(552.459 260.651)">
      <path id="Path_1417" data-name="Path 1417" d="M570.237,285.54v19.394H552.459V289.742q0-12.375,2.977-17.917a24.969,24.969,0,0,1,12.376-11.174l4.04,6.47a14.984,14.984,0,0,0-7.566,6.278q-2.432,4.17-2.709,12.141Zm28.606,0v19.394H581.065V289.742q0-12.375,2.977-17.917a24.969,24.969,0,0,1,12.376-11.174l4.04,6.47a14.983,14.983,0,0,0-7.566,6.278q-2.432,4.17-2.709,12.141Z" transform="translate(-552.459 -260.651)" fill="#c00"/>
    </g>
  </g>
</svg>
