<svg id="BL-audio-patch-medium_cut" xmlns="http://www.w3.org/2000/svg" xmlns:xlink="http://www.w3.org/1999/xlink" width="83" height="44" viewBox="0 0 83 44">
  <defs>
    <clipPath id="clip-path">
      <rect id="Rectangle_1354" data-name="Rectangle 1354" width="83" height="44" transform="translate(673 8221)" fill="none"/>
    </clipPath>
    <linearGradient id="linear-gradient" y1="0.454" x2="1" y2="0.437" gradientUnits="objectBoundingBox">
      <stop offset="0"/>
      <stop offset="1" stop-color="#212121"/>
    </linearGradient>
  </defs>
  <g id="BL-audio-patch-medium_cut-2" data-name="BL-audio-patch-medium_cut" transform="translate(-673 -8221)" clip-path="url(#clip-path)">
    <g id="Group_3054" data-name="Group 3054">
      <rect id="Rectangle_595" data-name="Rectangle 595" width="130.671" height="43.792" rx="21.896" transform="translate(624.527 8221)" fill="url(#linear-gradient)"/>
      <g id="Group_2634" data-name="Group 2634" transform="translate(682.863 8232)">
        <g id="Group_1137" data-name="Group 1137" transform="translate(24.798 13.978)">
          <path id="Path_129" data-name="Path 129" d="M-9.414-18.329a3.061,3.061,0,0,1-3.058-3.058,3.061,3.061,0,0,1,3.058-3.058,3.061,3.061,0,0,1,3.058,3.058A3.061,3.061,0,0,1-9.414-18.329Zm0-5.651a2.6,2.6,0,0,0-2.593,2.593,2.6,2.6,0,0,0,2.593,2.593,2.6,2.6,0,0,0,2.593-2.593A2.6,2.6,0,0,0-9.414-23.98Z" transform="translate(12.472 24.445)" fill="#fff"/>
          <path id="Path_130" data-name="Path 130" d="M-5.165-10.332a1.6,1.6,0,0,0,1.6-1.6,1.6,1.6,0,0,0-1.6-1.6,1.6,1.6,0,0,0-1.6,1.6,1.6,1.6,0,0,0,1.6,1.6" transform="translate(8.223 14.985)" fill="#fff"/>
        </g>
        <g id="Group_1140" data-name="Group 1140" transform="translate(0 0)">
          <g id="Group_1135" data-name="Group 1135" transform="translate(16.341 0.059)">
            <path id="Path_134" data-name="Path 134" d="M-42.872-109.381l-.089-.177-.354-.03c-1.034-.089-1.241-.177-1.241-.414v-19.208l-6.058,1.477-.03.118.65.177c1.034.266,1.212.5,1.212,2.275v15.1c0,.355-.148.414-1.064.473l-.384.03-.118.177Z" transform="translate(50.644 129.209)" fill="#fff"/>
          </g>
          <g id="Group_1136" data-name="Group 1136" transform="translate(0 0)">
            <path id="Path_135" data-name="Path 135" d="M-50.045-110.359c-.975,0-2.157-1.152-3.014-2.66v-7.387a3.608,3.608,0,0,1,2.3-1c2.009,0,3.221,2.216,3.221,5.289,0,3.162-.887,5.762-2.512,5.762m-7,.532,2.393-1.152h.03a11.662,11.662,0,0,0,4.285.916c3.28,0,7.358-2.246,7.358-7.122,0-3.635-2.364-6.353-5.319-6.353a6.175,6.175,0,0,0-4.639,2.748l-.118-.089v-9.486l-6.028,1.477-.03.118.68.177c1.034.266,1.212.5,1.212,2.275v16.489Z" transform="translate(59.117 130.365)" fill="#fff"/>
          </g>
        </g>
      </g>
      <g id="Group_2658" data-name="Group 2658" transform="translate(719.289 8230.566)">
        <path id="Path_41" data-name="Path 41" d="M-12.688-24.875a12.84,12.84,0,0,1-9.139-3.786A12.84,12.84,0,0,1-25.613-37.8a12.84,12.84,0,0,1,3.786-9.139,12.841,12.841,0,0,1,9.139-3.785A12.841,12.841,0,0,1-3.549-46.94,12.84,12.84,0,0,1,.237-37.8a12.84,12.84,0,0,1-3.786,9.139A12.84,12.84,0,0,1-12.688-24.875Zm0-25.016A12.1,12.1,0,0,0-24.779-37.8,12.1,12.1,0,0,0-12.688-25.709,12.1,12.1,0,0,0-.6-37.8,12.1,12.1,0,0,0-12.688-49.891Z" transform="translate(25.113 50.159)" fill="#fff"/>
        <g id="Group_2656" data-name="Group 2656" transform="translate(7.072 7.003)">
          <g id="Group_959" data-name="Group 959">
            <path id="Path_147" data-name="Path 147" d="M.018.386H.293A.121.121,0,0,0,.421.253V-2.765C.421-5.3,2.241-6.95,4.91-6.95S9.4-5.3,9.4-2.765V.253a.121.121,0,0,0,.128.133H9.8a.363.363,0,0,0,.383-.369v-2.98a4.768,4.768,0,0,0-5.1-4.816H4.735a4.767,4.767,0,0,0-5.1,4.816V.017A.359.359,0,0,0,.018.386" transform="translate(0.364 7.779)" fill="#fff"/>
          </g>
          <g id="Group_960" data-name="Group 960" transform="translate(0 6.047)">
            <path id="Path_148" data-name="Path 148" d="M.025.2h.48a.879.879,0,0,0,.974-.964V-3.074a.878.878,0,0,0-.974-.963H.025a.486.486,0,0,0-.535.546V-.345A.484.484,0,0,0,.025.2" transform="translate(0.51 4.037)" fill="#fff"/>
          </g>
          <g id="Group_961" data-name="Group 961" transform="translate(8.553 6.047)">
            <path id="Path_149" data-name="Path 149" d="M.046.2h.48a.488.488,0,0,0,.541-.546V-3.491a.49.49,0,0,0-.541-.546H.046a.878.878,0,0,0-.974.963V-.763A.879.879,0,0,0,.046.2" transform="translate(0.928 4.037)" fill="#fff"/>
          </g>
        </g>
      </g>
    </g>
  </g>
</svg>
