<svg id="Premium_batch" xmlns="http://www.w3.org/2000/svg" xmlns:xlink="http://www.w3.org/1999/xlink" width="38.501" height="38.501" viewBox="0 0 38.501 38.501">
  <defs>
    <clipPath id="clip-path">
      <rect id="Rectangle_410" data-name="Rectangle 410" width="38.501" height="38.501" fill="#c00"/>
    </clipPath>
  </defs>
  <g id="Group_2573" data-name="Group 2573">
    <g id="Group_2571" data-name="Group 2571">
      <g id="Group_1644" data-name="Group 1644">
        <g id="Group_1643" data-name="Group 1643" clip-path="url(#clip-path)">
          <path id="Path_315" data-name="Path 315" d="M38.5,19.25A19.251,19.251,0,1,1,19.25,0,19.251,19.251,0,0,1,38.5,19.25" transform="translate(0 0.001)" fill="#c00"/>
        </g>
      </g>
      <g id="Group_2572" data-name="Group 2572" transform="translate(5.496 9.363)">
        <g id="Group_1137" data-name="Group 1137" transform="translate(23.877 13.459)">
          <path id="Path_129" data-name="Path 129" d="M-9.528-18.556A2.948,2.948,0,0,1-12.472-21.5a2.948,2.948,0,0,1,2.944-2.944A2.948,2.948,0,0,1-6.584-21.5,2.948,2.948,0,0,1-9.528-18.556Zm0-5.441a2.5,2.5,0,0,0-2.5,2.5,2.5,2.5,0,0,0,2.5,2.5,2.5,2.5,0,0,0,2.5-2.5A2.5,2.5,0,0,0-9.528-24Z" transform="translate(12.472 24.445)" fill="#fff"/>
          <path id="Path_130" data-name="Path 130" d="M-5.225-10.45a1.536,1.536,0,0,0,1.536-1.536,1.536,1.536,0,0,0-1.536-1.537,1.536,1.536,0,0,0-1.536,1.537A1.536,1.536,0,0,0-5.225-10.45" transform="translate(8.169 14.931)" fill="#fff"/>
        </g>
        <g id="Group_1140" data-name="Group 1140" transform="translate(0 0)">
          <g id="Group_1135" data-name="Group 1135" transform="translate(15.734 0.057)">
            <path id="Path_134" data-name="Path 134" d="M-43.161-110.118l-.085-.171-.341-.029c-1-.085-1.2-.171-1.2-.4v-18.494l-5.833,1.423-.029.114.626.171c1,.256,1.167.484,1.167,2.191v14.539c0,.341-.142.4-1.024.455l-.37.029-.114.171Z" transform="translate(50.644 129.209)" fill="#fff"/>
          </g>
          <g id="Group_1136" data-name="Group 1136">
            <path id="Path_135" data-name="Path 135" d="M-50.382-111.1c-.939,0-2.077-1.11-2.9-2.561v-7.113a3.473,3.473,0,0,1,2.219-.967c1.935,0,3.1,2.134,3.1,5.093,0,3.045-.854,5.548-2.418,5.548m-6.743.512,2.3-1.11h.029a11.228,11.228,0,0,0,4.126.882,6.839,6.839,0,0,0,7.085-6.857c0-3.5-2.276-6.117-5.121-6.117a5.946,5.946,0,0,0-4.467,2.646l-.114-.085v-9.133l-5.8,1.423-.029.114.654.171c1,.256,1.167.484,1.167,2.191v15.876Z" transform="translate(59.117 130.365)" fill="#fff"/>
          </g>
        </g>
      </g>
    </g>
  </g>
</svg>
