<svg id="Premium_batch" xmlns="http://www.w3.org/2000/svg" xmlns:xlink="http://www.w3.org/1999/xlink" width="30" height="30" viewBox="0 0 30 30">
  <defs>
    <clipPath id="clip-path">
      <rect id="Rectangle_410" data-name="Rectangle 410" width="30" height="30" fill="#c00"/>
    </clipPath>
  </defs>
  <g id="Group_2573" data-name="Group 2573">
    <g id="Group_2571" data-name="Group 2571">
      <g id="Group_1644" data-name="Group 1644">
        <g id="Group_1643" data-name="Group 1643" clip-path="url(#clip-path)">
          <path id="Path_315" data-name="Path 315" d="M30,15A15,15,0,1,1,15,0,15,15,0,0,1,30,15" transform="translate(0 0.001)" fill="#c00"/>
        </g>
      </g>
      <g id="Group_2572" data-name="Group 2572" transform="translate(4.283 7.296)">
        <g id="Group_1137" data-name="Group 1137" transform="translate(18.605 10.487)">
          <path id="Path_129" data-name="Path 129" d="M-10.178-19.857a2.3,2.3,0,0,1-2.294-2.294,2.3,2.3,0,0,1,2.294-2.294,2.3,2.3,0,0,1,2.294,2.294A2.3,2.3,0,0,1-10.178-19.857Zm0-4.24a1.948,1.948,0,0,0-1.945,1.946,1.948,1.948,0,0,0,1.945,1.945,1.948,1.948,0,0,0,1.945-1.945A1.948,1.948,0,0,0-10.178-24.1Z" transform="translate(12.472 24.445)" fill="#fff"/>
          <path id="Path_130" data-name="Path 130" d="M-5.564-11.129a1.2,1.2,0,0,0,1.2-1.2,1.2,1.2,0,0,0-1.2-1.2,1.2,1.2,0,0,0-1.2,1.2,1.2,1.2,0,0,0,1.2,1.2" transform="translate(7.858 14.62)" fill="#fff"/>
        </g>
        <g id="Group_1140" data-name="Group 1140" transform="translate(0 0)">
          <g id="Group_1135" data-name="Group 1135" transform="translate(12.26 0.044)">
            <path id="Path_134" data-name="Path 134" d="M-44.813-114.333l-.067-.133-.266-.022c-.776-.067-.931-.133-.931-.31v-14.41l-4.545,1.108-.022.089.488.133c.776.2.909.377.909,1.707v11.329c0,.266-.111.31-.8.355l-.288.022-.089.133Z" transform="translate(50.644 129.209)" fill="#fff"/>
          </g>
          <g id="Group_1136" data-name="Group 1136">
            <path id="Path_135" data-name="Path 135" d="M-52.311-115.356c-.732,0-1.618-.865-2.261-2v-5.542a2.706,2.706,0,0,1,1.729-.754c1.508,0,2.416,1.663,2.416,3.968,0,2.372-.665,4.323-1.884,4.323m-5.254.4,1.8-.865h.022a8.749,8.749,0,0,0,3.215.687,5.329,5.329,0,0,0,5.52-5.343c0-2.727-1.774-4.767-3.991-4.767a4.633,4.633,0,0,0-3.481,2.062l-.089-.066v-7.117l-4.523,1.108-.022.089.51.133c.776.2.909.377.909,1.707v12.371Z" transform="translate(59.117 130.365)" fill="#fff"/>
          </g>
        </g>
      </g>
    </g>
  </g>
</svg>
