<svg xmlns="http://www.w3.org/2000/svg" xmlns:xlink="http://www.w3.org/1999/xlink" width="243" height="243" viewBox="0 0 243 243">
  <defs>
    <clipPath id="clip-path">
      <rect id="Rectangle_410" data-name="Rectangle 410" width="243" height="243" fill="#c00"/>
    </clipPath>
  </defs>
  <g id="Group_3206" data-name="Group 3206" transform="translate(-7028 6842)">
    <g id="Group_2571" data-name="Group 2571" transform="translate(7028 -6842)">
      <g id="Group_1644" data-name="Group 1644" transform="translate(0 0)">
        <g id="Group_1643" data-name="Group 1643" clip-path="url(#clip-path)">
          <path id="Path_315" data-name="Path 315" d="M243,121.5A121.5,121.5,0,1,1,121.5,0,121.5,121.5,0,0,1,243,121.5" transform="translate(0 -0.001)" fill="#c00"/>
        </g>
      </g>
      <g id="Group_2572" data-name="Group 2572" transform="translate(33.85 60.605)">
        <g id="Group_1137" data-name="Group 1137" transform="translate(152.927 82.89)">
          <path id="Path_129" data-name="Path 129" d="M5.661,11.823A18.154,18.154,0,0,1-12.472-6.31,18.154,18.154,0,0,1,5.661-24.445,18.154,18.154,0,0,1,23.794-6.31,18.154,18.154,0,0,1,5.661,11.823Zm0-33.511A15.4,15.4,0,0,0-9.715-6.31,15.394,15.394,0,0,0,5.661,9.066,15.394,15.394,0,0,0,21.038-6.31,15.4,15.4,0,0,0,5.661-21.688Z" transform="translate(12.472 24.445)" fill="#fff"/>
          <path id="Path_130" data-name="Path 130" d="M2.7,5.4A9.462,9.462,0,0,0,12.163-4.06,9.462,9.462,0,0,0,2.7-13.523,9.462,9.462,0,0,0-6.761-4.06,9.462,9.462,0,0,0,2.7,5.4" transform="translate(15.431 22.194)" fill="#fff"/>
        </g>
        <g id="Group_1140" data-name="Group 1140" transform="translate(0 0)">
          <g id="Group_1135" data-name="Group 1135" transform="translate(102.778 0.351)">
            <path id="Path_134" data-name="Path 134" d="M-4.557-11.626l-.526-1.051-2.1-.176c-6.134-.526-7.36-1.051-7.36-2.453v-113.9l-35.923,8.762-.176.7,3.855,1.051c6.134,1.577,7.185,2.979,7.185,13.494v89.545c0,2.1-.876,2.453-6.309,2.8l-2.278.176-.7,1.051Z" transform="translate(50.644 129.209)" fill="#fff"/>
          </g>
          <g id="Group_1136" data-name="Group 1136">
            <path id="Path_135" data-name="Path 135" d="M-5.319-11.73c-5.783,0-12.792-6.834-17.874-15.772V-71.31c4.03-2.98,7.535-5.958,13.668-5.958,11.916,0,19.1,13.142,19.1,31.367,0,18.751-5.257,34.171-14.9,34.171M-46.85-8.576l14.194-6.834h.176C-24.6-12.431-16.71-9.977-7.072-9.977,12.38-9.977,36.562-23.3,36.562-52.21c0-21.554-14.019-37.676-31.542-37.676-11.039,0-21.2,7.711-27.512,16.3l-.7-.525v-56.251L-58.941-121.6l-.176.7,4.03,1.051c6.134,1.577,7.185,2.98,7.185,13.493V-8.576Z" transform="translate(59.117 130.365)" fill="#fff"/>
          </g>
        </g>
      </g>
    </g>
  </g>
</svg>
