<svg xmlns="http://www.w3.org/2000/svg" width="20.432" height="22.255" viewBox="0 0 20.432 22.255">
  <g id="Group_1266" data-name="Group 1266" transform="translate(-27.418 -160.941)">
    <path id="Path_287" data-name="Path 287" d="M137.81,92.423H122.36a2.491,2.491,0,0,1-2.488-2.488V74.484A2.491,2.491,0,0,1,122.36,72H137.81a2.49,2.49,0,0,1,2.488,2.488V89.935A2.488,2.488,0,0,1,137.81,92.423ZM122.36,73.013a1.474,1.474,0,0,0-1.472,1.471V89.935a1.473,1.473,0,0,0,1.472,1.471H137.81a1.475,1.475,0,0,0,1.473-1.471V74.484a1.473,1.473,0,0,0-1.473-1.471Z" transform="translate(-92.449 90.773)"/>
    <path id="Path_288" data-name="Path 288" d="M240.819,35.586a.507.507,0,0,1-.507-.508V31.622a.508.508,0,0,1,1.017,0v3.456A.512.512,0,0,1,240.819,35.586Z" transform="translate(-207.504 129.826)"/>
    <path id="Path_289" data-name="Path 289" d="M432.314,35.576a.509.509,0,0,1-.509-.507V31.613a.508.508,0,0,1,1.017,0v3.456A.506.506,0,0,1,432.314,35.576Z" transform="translate(-390.438 129.836)"/>
    <path id="Path_290" data-name="Path 290" d="M139.707,178.795H120.294a.507.507,0,1,1,0-1.015h19.412a.507.507,0,1,1,0,1.015Z" transform="translate(-92.367 -10.281)"/>
  </g>
</svg>
