<svg xmlns="http://www.w3.org/2000/svg" width="18.427" height="20.426" viewBox="0 0 18.427 20.426">
  <g id="Group_1450" data-name="Group 1450" transform="translate(-281.719 -11.828)">
    <path id="Union_1" data-name="Union 1" d="M-1193.08-298.746a2.491,2.491,0,0,1-2.488-2.488v-15.45a2.491,2.491,0,0,1,2.488-2.488h13.45a2.49,2.49,0,0,1,2.489,2.488v15.45a2.488,2.488,0,0,1-2.489,2.488Zm-1.472-17.938v15.45a1.474,1.474,0,0,0,1.472,1.471h13.45a1.475,1.475,0,0,0,1.473-1.471v-15.45a1.474,1.474,0,0,0-1.473-1.471h-13.45A1.474,1.474,0,0,0-1194.551-316.684Zm2.72,14.058v-.75h8.255v.75Zm0-3v-.751h10.955v.751Zm-.375-3v-7.292h11.705v7.292Zm.75-.75h10.206v-5.792h-10.206Z" transform="translate(1477.286 331.001)"/>
  </g>
</svg>
