<svg xmlns="http://www.w3.org/2000/svg" width="17.517" height="19.418" viewBox="0 0 17.517 19.418">
  <g id="Group_3050" data-name="Group 3050" transform="translate(-299.719 4.172)">
    <path id="Path_512" data-name="Path 512" d="M11.182-23.264H.055V-30.2H11.182ZM.768-23.977h9.7v-5.506H.768Z" transform="translate(302.859 29.118)"/>
    <path id="Path_513" data-name="Path 513" d="M.43-30.2H10.844v.713H.43Z" transform="translate(302.84 38.189)"/>
    <path id="Path_514" data-name="Path 514" d="M.43-30.2H8.278v.713H.43Z" transform="translate(302.84 41.041)"/>
    <path id="Path_515" data-name="Path 515" d="M136.024,91.414H123.237a2.368,2.368,0,0,1-2.365-2.365V74.361A2.368,2.368,0,0,1,123.237,72h12.787a2.367,2.367,0,0,1,2.365,2.365V89.049A2.365,2.365,0,0,1,136.024,91.414ZM123.237,72.963a1.4,1.4,0,0,0-1.4,1.4V89.049a1.4,1.4,0,0,0,1.4,1.4h12.787a1.4,1.4,0,0,0,1.4-1.4V74.361a1.4,1.4,0,0,0-1.4-1.4Z" transform="translate(178.847 -76.167)"/>
  </g>
</svg>
