<svg id="Component_122_3" data-name="Component 122 – 3" xmlns="http://www.w3.org/2000/svg" xmlns:xlink="http://www.w3.org/1999/xlink" width="158.798" height="58.11" viewBox="0 0 158.798 58.11">
  <defs>
    <linearGradient id="linear-gradient" y1="0.454" x2="1" y2="0.437" gradientUnits="objectBoundingBox">
      <stop offset="0"/>
      <stop offset="1" stop-color="#212121"/>
    </linearGradient>
  </defs>
  <rect id="Rectangle_595" data-name="Rectangle 595" width="158.798" height="58.11" rx="29" fill="url(#linear-gradient)"/>
  <path id="Path_1092" data-name="Path 1092" d="M3.282.042,0-8.916H2L3.684-3.858l.432,1.614.432-1.614,1.6-5.058H8.13L4.9.042ZM9.27,0V-8.916h1.9V0Zm4.038,0V-8.916H18.75V-7.5H15.18v2.238h2.706v1.386H15.18v2.43h3.948V0Zm8.646.078L19.572-8.916h1.89L22.584-3.63l.39,2.646h-.222l.432-2.646,1.362-5.286h1.62l1.4,5.286.492,2.658H27.8l.384-2.658,1.068-5.286h1.836L28.758.078H26.91L25.566-5.028l-.528-3.246h.516l-.486,3.246L23.724.078ZM1,13V4.084h1.74L6.084,9.358,7.248,11.68H6.834l-.27-2.994v-4.6H8.28V13H6.42L3.228,7.888,1.89,5.248h.5l.312,3.246V13Zm12.876.1a3.961,3.961,0,0,1-2.208-.549,3.637,3.637,0,0,1-1.4-1.62A5.565,5.565,0,0,1,9.81,8.488,5.314,5.314,0,0,1,10.4,5.959,3.557,3.557,0,0,1,11.9,4.492a4.911,4.911,0,0,1,2.148-.5,3.815,3.815,0,0,1,2.127.531A3.579,3.579,0,0,1,17.553,6.1,5.44,5.44,0,0,1,18,8.53a5.636,5.636,0,0,1-.564,2.547,3.533,3.533,0,0,1-1.452,1.5A4.567,4.567,0,0,1,13.878,13.1Zm.036-1.38a1.882,1.882,0,0,0,1.59-.786,4.126,4.126,0,0,0,.588-2.46A4.977,4.977,0,0,0,15.861,6.9a2.453,2.453,0,0,0-.693-1.1,1.693,1.693,0,0,0-1.158-.4,2.177,2.177,0,0,0-1.143.312,2.155,2.155,0,0,0-.831,1.008,4.576,4.576,0,0,0-.312,1.848,4.878,4.878,0,0,0,.246,1.6,2.585,2.585,0,0,0,.732,1.137A1.78,1.78,0,0,0,13.914,11.716Zm6.822,1.362L18.354,4.084h1.89L21.366,9.37l.39,2.646h-.222l.432-2.646,1.362-5.286h1.62l1.4,5.286.492,2.658h-.252L26.97,9.37l1.068-5.286h1.836L27.54,13.078H25.692L24.348,7.972,23.82,4.726h.516L23.85,7.972l-1.344,5.106Z" transform="translate(99.257 27.765)" fill="#fff"/>
  <g id="Group_2318" data-name="Group 2318" transform="translate(58.889 12.619)">
    <g id="Group_2314" data-name="Group 2314">
      <g id="Group_253" data-name="Group 253">
        <path id="Path_45" data-name="Path 45" d="M-2.344-4.689a16.489,16.489,0,0,0,16.49-16.49,16.49,16.49,0,0,0-16.49-16.49,16.49,16.49,0,0,0-16.49,16.49A16.489,16.489,0,0,0-2.344-4.689Z" transform="translate(18.834 37.669)" fill="none" stroke="#fff" stroke-width="1"/>
      </g>
      <g id="Group_254" data-name="Group 254" transform="translate(6.575 8.702)">
        <path id="Path_46" data-name="Path 46" d="M-12.338,0a5.77,5.77,0,0,0-1.524.179c-.414.1-.62.23-.62.39s-.123.3-.367.419a2.352,2.352,0,0,1-.846.15q-.537,0-.874,1.168a10.439,10.439,0,0,0-.339,2.876v5.872a4.173,4.173,0,0,0,1.1,2.876A3.661,3.661,0,0,0-13.128,15.1H-.181a3.694,3.694,0,0,0,2.709-1.168,4.178,4.178,0,0,0,1.1-2.876V5.183a4.04,4.04,0,0,0-1.1-2.876A3.694,3.694,0,0,0-.181,1.139H-7.574A5.9,5.9,0,0,1-9.093.989q-1.1-.179-1.1-.419c0-.16-.216-.29-.649-.39A5.447,5.447,0,0,0-12.338,0m-2.144,4.254q0-.448.62-.779a3.961,3.961,0,0,1,1.524-.27,3.746,3.746,0,0,1,1.5.27q.649.331.649.779,0,.389-.649.72a3.417,3.417,0,0,1-1.5.3,3.611,3.611,0,0,1-1.524-.3q-.62-.331-.62-.72M-7.63,8.03a4.753,4.753,0,0,1,1.3-3.386A4.11,4.11,0,0,1-3.2,3.235,4.138,4.138,0,0,1-.041,4.644a4.749,4.749,0,0,1,1.3,3.386,4.638,4.638,0,0,1-1.3,3.3A4.178,4.178,0,0,1-3.2,12.7a4.149,4.149,0,0,1-3.132-1.378,4.641,4.641,0,0,1-1.3-3.3m1.58,0A3,3,0,0,0-5.2,10.156a2.6,2.6,0,0,0,2,.9,2.724,2.724,0,0,0,2.06-.9A3,3,0,0,0-.295,8.03a3.01,3.01,0,0,0-.846-2.188,2.726,2.726,0,0,0-2.06-.9,2.606,2.606,0,0,0-2,.9A3.007,3.007,0,0,0-6.051,8.03" transform="translate(16.909 0)" fill="#fff"/>
      </g>
    </g>
  </g>
  <g id="Group_3181" data-name="Group 3181" transform="translate(12.617 14.44)">
    <g id="Group_1137" data-name="Group 1137" transform="translate(32.906 18.548)">
      <path id="Path_129" data-name="Path 129" d="M-8.414-16.329a4.062,4.062,0,0,1-4.058-4.058,4.062,4.062,0,0,1,4.058-4.058,4.062,4.062,0,0,1,4.058,4.058A4.062,4.062,0,0,1-8.414-16.329Zm0-7.5a3.445,3.445,0,0,0-3.441,3.441,3.445,3.445,0,0,0,3.441,3.441,3.445,3.445,0,0,0,3.441-3.441A3.445,3.445,0,0,0-8.414-23.828Z" transform="translate(12.472 24.445)" fill="#fff"/>
      <path id="Path_130" data-name="Path 130" d="M-4.644-9.288a2.117,2.117,0,0,0,2.117-2.117,2.117,2.117,0,0,0-2.117-2.118,2.117,2.117,0,0,0-2.117,2.118A2.117,2.117,0,0,0-4.644-9.288" transform="translate(8.701 15.463)" fill="#fff"/>
    </g>
    <g id="Group_1140" data-name="Group 1140" transform="translate(0 0)">
      <g id="Group_1135" data-name="Group 1135" transform="translate(21.684 0.079)">
        <path id="Path_134" data-name="Path 134" d="M-40.331-102.9l-.118-.235-.47-.039c-1.372-.118-1.647-.235-1.647-.549v-25.488l-8.038,1.961-.039.157.863.235c1.372.353,1.608.667,1.608,3.019V-103.8c0,.471-.2.549-1.412.627l-.51.039-.157.235Z" transform="translate(50.644 129.209)" fill="#fff"/>
      </g>
      <g id="Group_1136" data-name="Group 1136" transform="translate(0 0)">
        <path id="Path_135" data-name="Path 135" d="M-47.079-103.819c-1.294,0-2.862-1.529-4-3.529v-9.8a4.787,4.787,0,0,1,3.059-1.333c2.666,0,4.274,2.941,4.274,7.019,0,4.2-1.176,7.646-3.333,7.646m-9.293.706,3.176-1.529h.039a15.475,15.475,0,0,0,5.686,1.216c4.353,0,9.764-2.98,9.764-9.45,0-4.823-3.137-8.431-7.058-8.431-2.47,0-4.745,1.725-6.156,3.647l-.157-.117v-12.587l-8,1.961-.039.157.9.235c1.372.353,1.608.667,1.608,3.019v21.88Z" transform="translate(59.117 130.365)" fill="#fff"/>
      </g>
    </g>
  </g>
</svg>
