<svg id="Component_121_18" data-name="Component 121 – 18" xmlns="http://www.w3.org/2000/svg" xmlns:xlink="http://www.w3.org/1999/xlink" width="82" height="56" viewBox="0 0 82 56">
  <defs>
    <clipPath id="clip-path">
      <rect id="Rectangle_625" data-name="Rectangle 625" width="82" height="56" transform="translate(504 898)" fill="#fff" stroke="#707070" stroke-width="1"/>
    </clipPath>
    <linearGradient id="linear-gradient" y1="0.454" x2="1" y2="0.437" gradientUnits="objectBoundingBox">
      <stop offset="0"/>
      <stop offset="1" stop-color="#212121"/>
    </linearGradient>
  </defs>
  <g id="Mask_Group_149" data-name="Mask Group 149" transform="translate(-504 -898)" clip-path="url(#clip-path)">
    <g id="Group_1478" data-name="Group 1478" transform="translate(-3804.762 802.625)">
      <rect id="Rectangle_595" data-name="Rectangle 595" width="121.953" height="44.627" rx="22.314" transform="translate(4266.641 97.686)" fill="url(#linear-gradient)"/>
      <g id="Group_2312" data-name="Group 2312" transform="translate(-88.5 3.545)">
        <g id="Group_243" data-name="Group 243" transform="translate(4443.387 104.388)">
          <path id="Path_41" data-name="Path 41" d="M-12.45-24.9A12.663,12.663,0,0,0,.214-37.562,12.663,12.663,0,0,0-12.45-50.225,12.663,12.663,0,0,0-25.113-37.562,12.663,12.663,0,0,0-12.45-24.9Z" transform="translate(25.113 50.225)" fill="none" stroke="#fff" stroke-width="1"/>
        </g>
      </g>
      <g id="Group_2321" data-name="Group 2321" transform="translate(4356.132 108.933)">
        <g id="Group_2314" data-name="Group 2314">
          <g id="Group_254" data-name="Group 254" transform="translate(3.345 5.885)">
            <path id="Path_46" data-name="Path 46" d="M-13.318,0a4.534,4.534,0,0,0-1.2.141C-14.84.22-15,.321-15,.447s-.1.236-.289.329a1.848,1.848,0,0,1-.665.118q-.422,0-.687.918a8.2,8.2,0,0,0-.266,2.26V8.686a3.279,3.279,0,0,0,.864,2.26,2.877,2.877,0,0,0,2.106.918H-3.766a2.9,2.9,0,0,0,2.128-.918,3.282,3.282,0,0,0,.864-2.26V4.073a3.174,3.174,0,0,0-.864-2.26A2.9,2.9,0,0,0-3.766.895H-9.575A4.634,4.634,0,0,1-10.768.777q-.865-.141-.865-.329c0-.126-.17-.228-.51-.306A4.28,4.28,0,0,0-13.318,0M-15,3.342q0-.352.487-.612a3.112,3.112,0,0,1,1.2-.212,2.943,2.943,0,0,1,1.175.212q.51.26.51.612,0,.306-.51.566a2.685,2.685,0,0,1-1.175.235,2.837,2.837,0,0,1-1.2-.235Q-15,3.648-15,3.342m5.384,2.967A3.734,3.734,0,0,1-8.6,3.649,3.229,3.229,0,0,1-6.138,2.542,3.252,3.252,0,0,1-3.655,3.649a3.732,3.732,0,0,1,1.02,2.66A3.644,3.644,0,0,1-3.655,8.9,3.283,3.283,0,0,1-6.138,9.98,3.26,3.26,0,0,1-8.6,8.9,3.647,3.647,0,0,1-9.619,6.309m1.241,0A2.354,2.354,0,0,0-7.712,7.98a2.046,2.046,0,0,0,1.574.707A2.14,2.14,0,0,0-4.52,7.98a2.357,2.357,0,0,0,.665-1.671A2.365,2.365,0,0,0-4.52,4.59a2.142,2.142,0,0,0-1.619-.706,2.048,2.048,0,0,0-1.574.706,2.363,2.363,0,0,0-.665,1.719" transform="translate(16.909)" fill="#fff"/>
          </g>
        </g>
      </g>
      <g id="Group_3182" data-name="Group 3182" transform="translate(4318.625 110.967)">
        <g id="Group_1137" data-name="Group 1137" transform="translate(24.798 13.978)">
          <path id="Path_129" data-name="Path 129" d="M-9.414-18.329a3.061,3.061,0,0,1-3.058-3.058,3.061,3.061,0,0,1,3.058-3.058,3.061,3.061,0,0,1,3.058,3.058A3.061,3.061,0,0,1-9.414-18.329Zm0-5.651a2.6,2.6,0,0,0-2.593,2.593,2.6,2.6,0,0,0,2.593,2.593,2.6,2.6,0,0,0,2.593-2.593A2.6,2.6,0,0,0-9.414-23.98Z" transform="translate(12.472 24.445)" fill="#fff"/>
          <path id="Path_130" data-name="Path 130" d="M-5.165-10.332a1.6,1.6,0,0,0,1.6-1.6,1.6,1.6,0,0,0-1.6-1.6,1.6,1.6,0,0,0-1.6,1.6,1.6,1.6,0,0,0,1.6,1.6" transform="translate(8.223 14.985)" fill="#fff"/>
        </g>
        <g id="Group_1140" data-name="Group 1140" transform="translate(0 0)">
          <g id="Group_1135" data-name="Group 1135" transform="translate(16.341 0.059)">
            <path id="Path_134" data-name="Path 134" d="M-42.872-109.381l-.089-.177-.354-.03c-1.034-.089-1.241-.177-1.241-.414v-19.208l-6.058,1.477-.03.118.65.177c1.034.266,1.212.5,1.212,2.275v15.1c0,.355-.148.414-1.064.473l-.384.03-.118.177Z" transform="translate(50.644 129.209)" fill="#fff"/>
          </g>
          <g id="Group_1136" data-name="Group 1136" transform="translate(0 0)">
            <path id="Path_135" data-name="Path 135" d="M-50.045-110.359c-.975,0-2.157-1.152-3.014-2.66v-7.387a3.608,3.608,0,0,1,2.3-1c2.009,0,3.221,2.216,3.221,5.289,0,3.162-.887,5.762-2.512,5.762m-7,.532,2.393-1.152h.03a11.662,11.662,0,0,0,4.285.916c3.28,0,7.358-2.246,7.358-7.122,0-3.635-2.364-6.353-5.319-6.353a6.175,6.175,0,0,0-4.639,2.748l-.118-.089v-9.486l-6.028,1.477-.03.118.68.177c1.034.266,1.212.5,1.212,2.275v16.489Z" transform="translate(59.117 130.365)" fill="#fff"/>
          </g>
        </g>
      </g>
    </g>
  </g>
</svg>
