<svg xmlns="http://www.w3.org/2000/svg" width="16.639" height="16.64" viewBox="0 0 16.639 16.64">
  <g id="Group_1480" data-name="Group 1480" transform="translate(0 0.001)">
    <path id="Path_523" data-name="Path 523" d="M339.418,24.062a.356.356,0,0,0-.356.356v7.964a.35.35,0,0,0,.355.35h7.964a.358.358,0,0,0,.356-.35,8.331,8.331,0,0,0-8.32-8.32Zm.356,7.964V24.782a7.623,7.623,0,0,1,7.245,7.233Z" transform="translate(-331.098 -24.062)"/>
    <path id="Path_524" data-name="Path 524" d="M107.788,109.488H101.46v-6.32a.355.355,0,0,0-.356-.356,7.04,7.04,0,1,0,7.04,7.031.355.355,0,0,0-.356-.356Zm-6.684,6.693a6.329,6.329,0,0,1-.355-12.646v6.317a.361.361,0,0,0,.412.347h6.258a6.34,6.34,0,0,1-6.315,5.982Z" transform="translate(-94.065 -100.253)"/>
  </g>
</svg>
