<svg xmlns="http://www.w3.org/2000/svg" width="17.012" height="19.698" viewBox="0 0 17.012 19.698">
  <path id="Path_319" data-name="Path 319" d="M151.084,33.6a3.141,3.141,0,0,0-3.134,3.134,3.1,3.1,0,0,0,.182,1.035L142.4,41.1a3.131,3.131,0,1,0,.007,4.7l5.729,3.323a3.1,3.1,0,0,0-.182,1.042,3.143,3.143,0,1,0,.6-1.84L142.991,45.1a3.1,3.1,0,0,0,0-3.323l5.561-3.218a3.131,3.131,0,1,0,2.532-4.966Zm0,.9a2.238,2.238,0,1,1-2.238,2.238A2.232,2.232,0,0,1,151.084,34.493Zm-10.745,6.715a2.238,2.238,0,1,1-2.238,2.238A2.232,2.232,0,0,1,140.339,41.208Zm10.745,6.715a2.238,2.238,0,1,1-2.238,2.238A2.232,2.232,0,0,1,151.084,47.923Z" transform="translate(-137.206 -33.597)"/>
</svg>
