<svg xmlns="http://www.w3.org/2000/svg" width="20" height="20" viewBox="0 0 20 20">
  <g id="Group_2690" data-name="Group 2690" transform="translate(-115.173 -1142.056)">
    <g id="Page-1" transform="translate(116.755 1145.137)">
      <g id="Dribbble-Light-Preview" transform="translate(0 0)">
        <g id="icons">
          <path id="twitter-_154_" data-name="twitter-[#154]" d="M9.483,7374.949a10.028,10.028,0,0,0,10.178-10.017c0-.158,0-.306-.01-.464a7.165,7.165,0,0,0,1.785-1.821,7.215,7.215,0,0,1-2.054.558,3.555,3.555,0,0,0,1.573-1.953,7.076,7.076,0,0,1-2.272.855,3.627,3.627,0,0,0-5.061-.148,3.488,3.488,0,0,0-1.035,3.364,10.242,10.242,0,0,1-7.373-3.678,3.491,3.491,0,0,0,1.108,4.7,3.629,3.629,0,0,1-1.624-.436v.043a3.547,3.547,0,0,0,2.87,3.452,3.606,3.606,0,0,1-1.615.052,3.567,3.567,0,0,0,3.341,2.45,7.178,7.178,0,0,1-4.443,1.509c-.284,0-.568-.019-.852-.045a10.3,10.3,0,0,0,5.483,1.579" transform="translate(-4 -7361.002)" fill-rule="evenodd"/>
        </g>
      </g>
    </g>
    <rect id="Rectangle_1496" data-name="Rectangle 1496" width="20" height="20" transform="translate(115.173 1142.056)" fill="none"/>
  </g>
</svg>
