<svg id="video-patch_small" xmlns="http://www.w3.org/2000/svg" xmlns:xlink="http://www.w3.org/1999/xlink" width="154.578" height="54" viewBox="0 0 154.578 54">
  <defs>
    <linearGradient id="linear-gradient" y1="0.454" x2="1" y2="0.437" gradientUnits="objectBoundingBox">
      <stop offset="0"/>
      <stop offset="1" stop-color="#212121"/>
    </linearGradient>
  </defs>
  <rect id="Rectangle_595" data-name="Rectangle 595" width="154.578" height="54" rx="27" fill="url(#linear-gradient)"/>
  <text id="watch_now" data-name="watch 
now" transform="translate(101.289 23.848)" fill="#fff" font-size="10" font-family="Roboto-Bold, Roboto" font-weight="700"><tspan x="0" y="0">WATCH </tspan><tspan x="0" y="11">NOW</tspan></text>
  <g id="Group_1479" data-name="Group 1479" transform="translate(62.559 12.773)">
    <g id="Group_243" data-name="Group 243">
      <path id="Path_41" data-name="Path 41" d="M-9.648-19.3A15.465,15.465,0,0,0,5.817-34.761,15.465,15.465,0,0,0-9.648-50.225,15.465,15.465,0,0,0-25.113-34.761,15.465,15.465,0,0,0-9.648-19.3Z" transform="translate(25.113 50.225)" fill="none" stroke="#fff" stroke-width="1"/>
    </g>
    <path id="Path_43" data-name="Path 43" d="M0-6.488V-21.5l12.951,7.484Z" transform="translate(11.094 29.358)" fill="#fff"/>
  </g>
  <g id="Group_2553" data-name="Group 2553" transform="translate(16.396 13.403)">
    <g id="Group_1137" data-name="Group 1137" transform="translate(31.884 17.972)">
      <path id="Path_129" data-name="Path 129" d="M-8.54-16.582a3.936,3.936,0,0,1-3.932-3.932A3.936,3.936,0,0,1-8.54-24.445a3.936,3.936,0,0,1,3.932,3.932A3.936,3.936,0,0,1-8.54-16.582Zm0-7.266a3.338,3.338,0,0,0-3.334,3.334A3.338,3.338,0,0,0-8.54-17.179a3.338,3.338,0,0,0,3.334-3.334A3.338,3.338,0,0,0-8.54-23.847Z" transform="translate(12.472 24.445)" fill="#fff"/>
      <path id="Path_130" data-name="Path 130" d="M-4.709-9.42a2.052,2.052,0,0,0,2.052-2.052,2.052,2.052,0,0,0-2.052-2.052,2.052,2.052,0,0,0-2.052,2.052A2.052,2.052,0,0,0-4.709-9.42" transform="translate(8.641 15.403)" fill="#fff"/>
    </g>
    <g id="Group_1140" data-name="Group 1140" transform="translate(0 0)">
      <g id="Group_1135" data-name="Group 1135" transform="translate(21.011 0.076)">
        <path id="Path_134" data-name="Path 134" d="M-40.652-103.715l-.114-.228-.456-.038c-1.33-.114-1.6-.228-1.6-.532v-24.7l-7.789,1.9-.038.152.836.228c1.33.342,1.558.646,1.558,2.926v19.415c0,.456-.19.532-1.368.608l-.494.038-.152.228Z" transform="translate(50.644 129.209)" fill="#fff"/>
      </g>
      <g id="Group_1136" data-name="Group 1136" transform="translate(0 0)">
        <path id="Path_135" data-name="Path 135" d="M-47.453-104.643c-1.254,0-2.774-1.482-3.875-3.42v-9.5a4.638,4.638,0,0,1,2.964-1.292c2.584,0,4.141,2.85,4.141,6.8,0,4.066-1.14,7.409-3.23,7.409m-9,.684,3.077-1.482h.038a15,15,0,0,0,5.509,1.178c4.217,0,9.461-2.888,9.461-9.157,0-4.673-3.04-8.169-6.839-8.169-2.394,0-4.6,1.672-5.965,3.533l-.152-.114v-12.2l-7.751,1.9-.038.152.874.228c1.33.342,1.558.646,1.558,2.925v21.2Z" transform="translate(59.117 130.365)" fill="#fff"/>
      </g>
    </g>
  </g>
</svg>
