<svg xmlns="http://www.w3.org/2000/svg" width="16.481" height="16.481" viewBox="0 0 16.481 16.481">
  <path id="Icon_ionic-logo-whatsapp" data-name="Icon ionic-logo-whatsapp" d="M10.64,2.25a8.06,8.06,0,0,0-8.091,8.028A7.945,7.945,0,0,0,3.71,14.424L2.25,18.731l4.479-1.423a8.1,8.1,0,0,0,12-7.03A8.06,8.06,0,0,0,10.64,2.25Zm4.023,11.077a2.09,2.09,0,0,1-1.431.922c-.379.02-.39.294-2.459-.6A8.442,8.442,0,0,1,7.362,10.42,3.968,3.968,0,0,1,6.6,8.269a2.293,2.293,0,0,1,.787-1.682.792.792,0,0,1,.56-.236c.163,0,.268,0,.389,0s.3-.025.458.391.531,1.44.579,1.545a.375.375,0,0,1,0,.359,1.405,1.405,0,0,1-.219.334c-.108.116-.227.259-.323.348s-.22.2-.107.415a6.191,6.191,0,0,0,1.1,1.462,5.645,5.645,0,0,0,1.622,1.079c.2.111.324.1.45-.034s.539-.579.684-.779.282-.161.469-.086,1.183.609,1.386.719.338.167.387.254A1.7,1.7,0,0,1,14.663,13.327Z" transform="translate(-2.25 -2.25)" fill="#4caf50"/>
</svg>
